<svg width="24" height="18" viewBox="0 0 24 18" fill="none" xmlns="http://www.w3.org/2000/svg">
<path d="M19.3125 11.0682C19.8303 11.0682 20.25 11.4879 20.25 12.0057V13.1307C20.25 13.6485 19.8303 14.0682 19.3125 14.0682H17.1562C16.6384 14.0682 16.2188 13.6485 16.2188 13.1307V12.0057C16.2188 11.4879 16.6384 11.0682 17.1562 11.0682H19.3125ZM22.125 9.38068V6.56818H1.875V14.0625C1.875 15.0963 2.71619 15.9375 3.75 15.9375H20.25C21.2838 15.9375 22.125 15.0963 22.125 14.0625C22.125 13.5447 22.5447 13.125 23.0625 13.125C23.5803 13.125 24 13.5447 24 14.0625C24 16.1303 22.3178 17.8125 20.25 17.8125H3.75C1.68219 17.8125 0 16.1303 0 14.0625V3.9375C0 1.86969 1.68219 0.1875 3.75 0.1875H20.25C22.3178 0.1875 24 1.86969 24 3.9375V9.38068C24 9.8985 23.5803 10.3182 23.0625 10.3182C22.5447 10.3182 22.125 9.8985 22.125 9.38068ZM22.125 4.69318V3.9375C22.125 2.90369 21.2838 2.0625 20.25 2.0625H3.75C2.71619 2.0625 1.875 2.90369 1.875 3.9375V4.69318H22.125ZM4.6875 8.44318C4.16968 8.44318 3.75 8.86285 3.75 9.38068C3.75 9.8985 4.16968 10.3182 4.6875 10.3182H12.4219C12.9397 10.3182 13.3594 9.8985 13.3594 9.38068C13.3594 8.86285 12.9397 8.44318 12.4219 8.44318H4.6875Z" fill="#72757A"/>
</svg>
